<?xml version="1.0" encoding="UTF-8"?>
<svg id="_Слой_1" data-name="Слой 1" xmlns="http://www.w3.org/2000/svg" viewBox="0 0 80 80">
  <defs>
    <style>
      .cls-1 {
        fill: #fff;
        stroke: #56246d;
        stroke-miterlimit: 10;
        stroke-width: 2px;
      }
    </style>
  </defs>
  <path class="cls-1" d="M69.32,8.14h-20.39c-.79,0-1.54.37-2.02.99l-20.39,26.51-3.08-3.07c-1.99-1.99-5.22-1.99-7.21,0,0,0,0,0,0,0l-4.04,4.05c-1.99,1.99-1.99,5.22,0,7.21,0,0,0,0,0,0l6.37,6.37-8.92,8.92c-1.99,1.99-1.99,5.22,0,7.21,0,0,0,0,0,0l4.04,4.04c1.99,1.99,5.22,1.99,7.21,0l8.92-8.92,6.37,6.37c1.99,1.99,5.22,1.99,7.21,0,0,0,0,0,0,0l4.04-4.05c1.99-1.99,1.99-5.22,0-7.21h0s-3.07-3.07-3.07-3.07l26.51-20.39c.63-.48,1-1.23.99-2.03V10.69c0-1.41-1.14-2.55-2.55-2.55ZM17.28,66.76l-4.04-4.04,8.92-8.92,4.04,4.04-8.92,8.92ZM39.78,64.21l-23.99-23.99,4.05-4.05,23.99,23.99-4.05,4.04ZM66.77,29.82l-26.04,20.03-3.49-3.49,16.04-16.04c1-1,.99-2.61,0-3.61-1-1-2.61-.99-3.61,0h0l-16.04,16.04-3.48-3.49,20.03-26.04h16.59v16.59Z"/>
</svg>