<?xml version="1.0" encoding="UTF-8"?>
<svg id="_Слой_1" data-name="Слой 1" xmlns="http://www.w3.org/2000/svg" viewBox="0 0 80 80">
  <defs>
    <style>
      .cls-1 {
        fill: #fff;
        stroke: #56246d;
        stroke-miterlimit: 10;
        stroke-width: 2px;
      }
    </style>
  </defs>
  <path class="cls-1" d="M73.24,71.2c-4.92-8.5-12.5-14.6-21.34-17.49,11.04-6.57,14.66-20.84,8.09-31.88-6.57-11.04-20.84-14.66-31.88-8.09-11.04,6.57-14.66,20.84-8.09,31.88,1.98,3.33,4.76,6.11,8.09,8.09-8.85,2.89-16.43,8.98-21.34,17.49-.75,1.22-.36,2.81.85,3.55,1.22.75,2.81.36,3.55-.85.02-.04.05-.08.07-.12,6.08-10.52,16.84-16.79,28.77-16.79s22.68,6.28,28.77,16.79c.68,1.25,2.25,1.72,3.5,1.04s1.72-2.25,1.04-3.5c-.02-.04-.04-.08-.07-.12ZM21.91,33.73c0-9.99,8.1-18.09,18.09-18.09s18.09,8.1,18.09,18.09-8.1,18.09-18.09,18.09c-9.98-.01-18.08-8.1-18.09-18.09Z"/>
</svg>